<svg xmlns="http://www.w3.org/2000/svg" xmlns:xlink="http://www.w3.org/1999/xlink" version="1.1" width="256" height="256" viewBox="0 0 256 256" xml:space="preserve">

<defs>
</defs>
<g style="stroke: none; stroke-width: 0; stroke-dasharray: none; stroke-linecap: butt; stroke-linejoin: miter; stroke-miterlimit: 10; fill: none; fill-rule: nonzero; opacity: 1;" transform="translate(1.4065934065934016 1.4065934065934016) scale(2.81 2.81)" >
	<path d="M 80.397 90 H 65.818 c -0.385 0 -0.735 -0.221 -0.901 -0.567 c -1.164 -2.427 -3.553 -3.934 -6.232 -3.934 s -5.068 1.508 -6.233 3.934 C 52.285 89.779 51.935 90 51.55 90 h -13.1 c -0.385 0 -0.735 -0.221 -0.901 -0.567 c -1.165 -2.427 -3.553 -3.934 -6.233 -3.934 s -5.068 1.507 -6.233 3.934 C 24.917 89.779 24.566 90 24.181 90 H 9.602 c -0.552 0 -1 -0.447 -1 -1 V 1 c 0 -0.552 0.448 -1 1 -1 h 70.795 c 0.553 0 1 0.448 1 1 v 88 C 81.397 89.553 80.95 90 80.397 90 z M 66.422 88 h 12.976 V 2 H 10.602 v 86 h 12.976 c 1.577 -2.754 4.547 -4.501 7.738 -4.501 s 6.161 1.747 7.738 4.501 h 11.893 c 1.578 -2.754 4.549 -4.501 7.738 -4.501 C 61.875 83.499 64.845 85.246 66.422 88 z" style="stroke: none; stroke-width: 1; stroke-dasharray: none; stroke-linecap: butt; stroke-linejoin: miter; stroke-miterlimit: 10; fill: rgb(0,0,0); fill-rule: nonzero; opacity: 1;" transform=" matrix(1 0 0 1 0 0) " stroke-linecap="round" />
	<path d="M 66.654 21.435 H 23.346 c -0.552 0 -1 -0.448 -1 -1 s 0.448 -1 1 -1 h 43.308 c 0.553 0 1 0.448 1 1 S 67.207 21.435 66.654 21.435 z" style="stroke: none; stroke-width: 1; stroke-dasharray: none; stroke-linecap: butt; stroke-linejoin: miter; stroke-miterlimit: 10; fill: rgb(0,0,0); fill-rule: nonzero; opacity: 1;" transform=" matrix(1 0 0 1 0 0) " stroke-linecap="round" />
	<path d="M 66.654 35.12 H 23.346 c -0.552 0 -1 -0.448 -1 -1 s 0.448 -1 1 -1 h 43.308 c 0.553 0 1 0.448 1 1 S 67.207 35.12 66.654 35.12 z" style="stroke: none; stroke-width: 1; stroke-dasharray: none; stroke-linecap: butt; stroke-linejoin: miter; stroke-miterlimit: 10; fill: rgb(0,0,0); fill-rule: nonzero; opacity: 1;" transform=" matrix(1 0 0 1 0 0) " stroke-linecap="round" />
	<path d="M 66.654 48.804 H 23.346 c -0.552 0 -1 -0.447 -1 -1 s 0.448 -1 1 -1 h 43.308 c 0.553 0 1 0.447 1 1 S 67.207 48.804 66.654 48.804 z" style="stroke: none; stroke-width: 1; stroke-dasharray: none; stroke-linecap: butt; stroke-linejoin: miter; stroke-miterlimit: 10; fill: rgb(0,0,0); fill-rule: nonzero; opacity: 1;" transform=" matrix(1 0 0 1 0 0) " stroke-linecap="round" />
	<path d="M 66.654 62.488 H 49.347 c -0.553 0 -1 -0.447 -1 -1 s 0.447 -1 1 -1 h 17.308 c 0.553 0 1 0.447 1 1 S 67.207 62.488 66.654 62.488 z" style="stroke: none; stroke-width: 1; stroke-dasharray: none; stroke-linecap: butt; stroke-linejoin: miter; stroke-miterlimit: 10; fill: rgb(0,0,0); fill-rule: nonzero; opacity: 1;" transform=" matrix(1 0 0 1 0 0) " stroke-linecap="round" />
</g>
</svg>