<svg xmlns="http://www.w3.org/2000/svg" xmlns:xlink="http://www.w3.org/1999/xlink" version="1.1" width="256" height="256" viewBox="0 0 256 256" xml:space="preserve">

<defs>
</defs>
<g style="stroke: none; stroke-width: 0; stroke-dasharray: none; stroke-linecap: butt; stroke-linejoin: miter; stroke-miterlimit: 10; fill: none; fill-rule: nonzero; opacity: 1;" transform="translate(1.4065934065934016 1.4065934065934016) scale(2.81 2.81)" >
	<path d="M 89 79.382 H 1 c -0.355 0 -0.683 -0.188 -0.863 -0.494 c -0.179 -0.306 -0.183 -0.685 -0.01 -0.994 l 15.947 -28.521 c 0.177 -0.315 0.511 -0.512 0.873 -0.512 h 22.326 c 0.552 0 1 0.447 1 1 s -0.448 1 -1 1 H 17.534 L 2.705 77.382 h 84.59 L 72.466 50.86 H 50.728 c -0.553 0 -1 -0.447 -1 -1 s 0.447 -1 1 -1 h 22.325 c 0.362 0 0.696 0.196 0.873 0.512 l 15.947 28.521 c 0.173 0.31 0.169 0.688 -0.011 0.994 S 89.354 79.382 89 79.382 z" style="stroke: none; stroke-width: 1; stroke-dasharray: none; stroke-linecap: butt; stroke-linejoin: miter; stroke-miterlimit: 10; fill: rgb(0,0,0); fill-rule: nonzero; opacity: 1;" transform=" matrix(1 0 0 1 0 0) " stroke-linecap="round" />
	<path d="M 45 60.554 L 45 60.554 c -0.354 0 -0.681 -0.187 -0.861 -0.491 l -1.784 -3.019 c -5.353 -9.051 -10.888 -18.409 -12.658 -21.959 c -1.138 -2.336 -1.713 -4.84 -1.713 -7.45 c 0 -9.383 7.633 -17.016 17.016 -17.016 s 17.016 7.633 17.016 17.016 c 0 2.593 -0.566 5.08 -1.685 7.393 C 58.532 38.636 52.994 48 47.639 57.056 l -1.778 3.007 C 45.681 60.367 45.354 60.554 45 60.554 z M 45 12.619 c -8.28 0 -15.016 6.736 -15.016 15.016 c 0 2.304 0.507 4.513 1.507 6.565 c 1.733 3.478 7.25 12.806 12.585 21.825 L 45 57.589 l 0.878 -1.485 c 5.376 -9.091 10.896 -18.424 12.638 -21.92 c 0.999 -2.065 1.499 -4.259 1.499 -6.548 C 60.016 19.355 53.279 12.619 45 12.619 z" style="stroke: none; stroke-width: 1; stroke-dasharray: none; stroke-linecap: butt; stroke-linejoin: miter; stroke-miterlimit: 10; fill: rgb(0,0,0); fill-rule: nonzero; opacity: 1;" transform=" matrix(1 0 0 1 0 0) " stroke-linecap="round" />
	<path d="M 45.024 35.998 c -4.769 0 -8.649 -3.88 -8.649 -8.649 c 0 -4.769 3.88 -8.649 8.649 -8.649 s 8.649 3.88 8.649 8.649 C 53.673 32.118 49.793 35.998 45.024 35.998 z M 45.024 20.7 c -3.666 0 -6.649 2.983 -6.649 6.649 c 0 3.667 2.983 6.649 6.649 6.649 c 3.667 0 6.649 -2.983 6.649 -6.649 C 51.673 23.683 48.69 20.7 45.024 20.7 z" style="stroke: none; stroke-width: 1; stroke-dasharray: none; stroke-linecap: butt; stroke-linejoin: miter; stroke-miterlimit: 10; fill: rgb(0,0,0); fill-rule: nonzero; opacity: 1;" transform=" matrix(1 0 0 1 0 0) " stroke-linecap="round" />
	<path d="M 1 79.382 c -0.441 0 -0.845 -0.294 -0.965 -0.74 c -0.143 -0.533 0.173 -1.082 0.706 -1.226 l 76.501 -20.565 c 0.531 -0.145 1.082 0.172 1.226 0.706 c 0.144 0.533 -0.173 1.082 -0.706 1.226 L 1.26 79.348 C 1.173 79.371 1.085 79.382 1 79.382 z" style="stroke: none; stroke-width: 1; stroke-dasharray: none; stroke-linecap: butt; stroke-linejoin: miter; stroke-miterlimit: 10; fill: rgb(0,0,0); fill-rule: nonzero; opacity: 1;" transform=" matrix(1 0 0 1 0 0) " stroke-linecap="round" />
	<path d="M 63.521 73.279 c -0.286 0 -0.569 -0.121 -0.767 -0.357 l -7.332 -8.733 c -0.355 -0.423 -0.301 -1.054 0.123 -1.408 c 0.423 -0.355 1.056 -0.301 1.408 0.123 l 7.332 8.733 c 0.355 0.423 0.301 1.054 -0.123 1.408 C 63.977 73.202 63.748 73.279 63.521 73.279 z" style="stroke: none; stroke-width: 1; stroke-dasharray: none; stroke-linecap: butt; stroke-linejoin: miter; stroke-miterlimit: 10; fill: rgb(0,0,0); fill-rule: nonzero; opacity: 1;" transform=" matrix(1 0 0 1 0 0) " stroke-linecap="round" />
	<path d="M 34.419 70.398 c -0.285 0 -0.568 -0.121 -0.766 -0.357 L 23.606 58.075 c -0.355 -0.423 -0.3 -1.054 0.123 -1.408 c 0.424 -0.354 1.054 -0.301 1.409 0.123 l 10.047 11.966 c 0.355 0.423 0.3 1.054 -0.123 1.408 C 34.875 70.321 34.646 70.398 34.419 70.398 z" style="stroke: none; stroke-width: 1; stroke-dasharray: none; stroke-linecap: butt; stroke-linejoin: miter; stroke-miterlimit: 10; fill: rgb(0,0,0); fill-rule: nonzero; opacity: 1;" transform=" matrix(1 0 0 1 0 0) " stroke-linecap="round" />
</g>
</svg>