<?xml version="1.0" standalone="yes"?>
<svg xmlns="http://www.w3.org/2000/svg" width="417" height="528">
<path style="fill:#0b0501; stroke:none;" d="M0 0L0 528L417 528L417 0L0 0z"/>
<path style="fill:#a65101; stroke:none;" d="M177 27L207 21C200.138 18.1205 181.141 20.404 177 27M209 20L209 21L213 21L209 20M216 20L216 21L220 21L216 20M221 20L221 21L238 21L221 20M239 21L239 22L242 22L239 21M243 22L243 23L249 25L243 22M156 41L157 44C149.618 46.1273 133.261 60.4788 132 68C119.532 70.1077 113.719 94.4711 116 105C111.15 108.144 111.544 123.705 113 129L111 148L114 149L113 164C107.651 170.658 109.465 179.905 108.91 188C108.45 194.721 104.878 201.524 105.109 208C105.585 221.357 116.397 234.612 123.371 245.285C127.098 250.989 129.724 256.521 137 258L146.444 277.039L150.514 287.397L158 289C154.871 304.35 167.064 311.942 176.621 320.378C180.609 323.898 183.381 329.236 189 330.529C199.587 332.964 212.253 329.758 222 326L219 325L219 324L225 324L225 329C234.555 327.99 250.929 334.625 258.571 327.451C267.831 318.757 273.149 285.961 289 289L299 260L305 260C304.514 254.065 307.565 251.391 309.247 246C315.016 227.513 326.745 210.173 323 190L324 190C325.369 195.005 328.12 199.791 328.66 205C329.67 214.749 324.032 233.011 335 239L335 227C331.239 227 333.905 220 337 220C342.258 205.284 343.188 178.945 339.517 163.63C336.976 153.027 323.934 157.376 320 164C314.79 151.673 317.086 137.875 316.995 125C316.879 108.476 313.183 88.4662 303.265 75.0008C299.964 70.5196 294.229 61.7277 289 60C288.14 55.0042 279.046 46.1985 274 46L273 41L264 36C242.192 24.0176 214.894 19.3822 190 25.7593C177.561 28.9458 167.276 35.5242 156 41M250 24L250 25L257 28L250 24M258 27L265 32L265 31L258 27M166 30L167 31L166 30M163 32L164 33L163 32M267 32L268 33L267 32M269 33L270 34L269 33M272 36L273 37L272 36z"/>
<path style="fill:#858a01; stroke:none;" d="M151 40L152 41L151 40z"/>
<path style="fill:#a65101; stroke:none;" d="M152 40L150 43L152 40z"/>
<path style="fill:#042070; stroke:none;" d="M152 41L153 42L152 41z"/>
<path style="fill:#a65101; stroke:none;" d="M278 41L279 42L278 41M140 49L139 51L140 49M291 53L294 56L291 53M132 57L131 59L132 57M296.333 58.6667L296.667 59.3333L296.333 58.6667M129 59L124 66C126.349 64.3494 130.398 62.1018 129 59z"/>
<path style="fill:#858a01; stroke:none;" d="M297 59L298 60L297 59z"/>
<path style="fill:#042070; stroke:none;" d="M297 60L298 61L297 60z"/>
<path style="fill:#a65101; stroke:none;" d="M298 60C299.558 64.5039 302.338 68.5697 307 70L298 60z"/>
<path style="fill:#858a01; stroke:none;" d="M303 65L304 66L303 65M304 66L305 67L304 66z"/>
<path style="fill:#a65101; stroke:none;" d="M121 68L119 71L121 68M307 71L309 74L308 77L312 78L316 85L307 71z"/>
<path style="fill:#858a01; stroke:none;" d="M314 80L315 81L314 80z"/>
<path style="fill:#042070; stroke:none;" d="M111 82L112 83L111 82z"/>
<path style="fill:#a65101; stroke:none;" d="M110 84L111 85L110 84z"/>
<path style="fill:#042070; stroke:none;" d="M109 86L110 87L109 86z"/>
<path style="fill:#a65101; stroke:none;" d="M317 87L318 88L317 87z"/>
<path style="fill:#042070; stroke:none;" d="M108 88L109 89L108 88z"/>
<path style="fill:#a65101; stroke:none;" d="M318 89L319 90L318 89M320 94L320 97L321 97L320 94M322 101L324 104L322 101M324 109L325 110L324 109z"/>
<path style="fill:#042070; stroke:none;" d="M325 117L326 118L325 117z"/>
<path style="fill:#a65101; stroke:none;" d="M326 126L327 127L326 126z"/>
<path style="fill:#0b0501; stroke:none;" d="M243 133C251.11 138.096 263.759 135.165 273 135C269.262 124.057 250.263 128.557 243 133M159 133L158 136L155 135L151 138C158.309 142.362 176.274 138.045 185 137.999C189.057 137.978 192.521 138.205 194 134L173 130.495L159 133M274 132L274 134L280 134L274 132z"/>
<path style="fill:#a65101; stroke:none;" d="M158 136L159 137L158 136z"/>
<path style="fill:#042070; stroke:none;" d="M100 148L101 149L100 148z"/>
<path style="fill:#0b0501; stroke:none;" d="M252 155L247 156L247 158L261.015 165.856L275 164C277.305 160.143 279.684 159.895 284 160C281.379 150.744 270.566 147.712 262 148.502C257.283 148.937 251.905 149.208 252 155M149 161L161 162L159 163L159 164L175.572 166.506L189 160L185 157L186 154C173.479 145.151 157.95 148.558 149 161z"/>
<path style="fill:#042070; stroke:none;" d="M324 152L324 156L325 156L324 152M100 153L101 154L100 153M161 156L161 158L163 156L161 156M273 156L273 157L276 157L273 156z"/>
<path style="fill:#858a01; stroke:none;" d="M326 157L327 158L326 157z"/>
<path style="fill:#042070; stroke:none;" d="M101.333 158.667L101.667 159.333L101.333 158.667z"/>
<path style="fill:#858a01; stroke:none;" d="M335 158L337 160L335 158z"/>
<path style="fill:#ecca01; stroke:none;" d="M336 158L337 159L336 158z"/>
<path style="fill:#858a01; stroke:none;" d="M339 162L340 163L339 162z"/>
<path style="fill:#042070; stroke:none;" d="M102 164L103 165L102 164z"/>
<path style="fill:#ecca01; stroke:none;" d="M339 164L340 165L339 164z"/>
<path style="fill:#858a01; stroke:none;" d="M340 165L340 171L341 171L340 165z"/>
<path style="fill:#0b0501; stroke:none;" d="M260 168L260 169L268 169L260 168z"/>
<path style="fill:#042070; stroke:none;" d="M103.333 168.667L103.667 169.333L103.333 168.667z"/>
<path style="fill:#0b0501; stroke:none;" d="M257 168L258 169L257 168z"/>
<path style="fill:#ecca01; stroke:none;" d="M92 172L93 173L92 172z"/>
<path style="fill:#858a01; stroke:none;" d="M93 172L94 173L93 172z"/>
<path style="fill:#a65101; stroke:none;" d="M89 178L92 176L93 177L89 179L89 196L88 196L88 182L87 182L87 208L89 207L89 215L90 215L90 212L91 212C91.0427 219.715 90.4121 226.824 97 232L93 212L94 208L97 210C97.9394 197.216 108.077 185.798 104 172C97.7751 172.327 91.5305 171.056 89 178z"/>
<path style="fill:#858a01; stroke:none;" d="M89 175L90 176L89 175z"/>
<path style="fill:#0b0501; stroke:none;" d="M252 178L257 182L257 178L252 178z"/>
<path style="fill:#a65101; stroke:none;" d="M87 180L88 181L87 180z"/>
<path style="fill:#0b0501; stroke:none;" d="M260 181L261 182L260 181M93 182L94 183L93 182M264 183L264 186L265 186L264 183M94 184L95 185L94 184M262 184L263 185L262 184M94 186L95 187L94 186M88 204L89 205L88 204M90 208L90 211L91 211L90 208z"/>
<path style="fill:#a65101; stroke:none;" d="M95.6667 211.333L96.3333 211.667L95.6667 211.333z"/>
<path style="fill:#0b0501; stroke:none;" d="M337 212L338 213L337 212M203 214C206.854 226.599 219.263 215.246 208.02 213.803C206.323 213.586 204.684 213.822 203 214M231 216C233.639 218.459 235.228 218.278 238 216L231 216M337 215L338 216L337 215z"/>
<path style="fill:#a65101; stroke:none;" d="M336 221L337 222L336 221M89 225L90 226L89 225z"/>
<path style="fill:#0b0501; stroke:none;" d="M204 227C200.723 253.921 148.941 245.822 163 279C168.213 276.791 171.168 272.131 176.039 269.557C185.959 264.315 205.264 263.259 209 251C222.838 250.026 213.005 229.258 204 227z"/>
<path style="fill:#042070; stroke:none;" d="M335 227L336 228L335 227z"/>
<path style="fill:#a65101; stroke:none;" d="M89 229L89 232L90 232L89 229z"/>
<path style="fill:#0b0501; stroke:none;" d="M275 276L274 273L277 272C276.3 267.663 276.869 261.935 274.821 258.04C269.009 246.988 253.432 248.714 244 244C245.483 237.699 240.559 226.725 232.11 229.647C229.152 230.67 221.756 242.013 221.466 244.985C221.056 249.185 226.159 251.856 228.996 253.975C239.59 261.887 250.711 261.967 262 267.403C266.858 269.742 269.698 275.092 275 276z"/>
<path style="fill:#042070; stroke:none;" d="M93 240L94 241L93 240M97 257C97.7963 260.716 100.637 260 104 260L104 258L97 257M334 260L335 261L334 260M97 265L98 266L97 265M97 267L99 276L107 276L106 272L101 273L97 267z"/>
<path style="fill:#0b0501; stroke:none;" d="M184 272L184 273C197.572 279.235 211.761 273.053 225.985 274.054C233.801 274.604 241.517 277.483 249 273C242.268 268.941 234.16 270.158 226.715 270.241C212.36 270.4 198.183 267.769 184 272z"/>
<path style="fill:#042070; stroke:none;" d="M332 271L333 272L332 271z"/>
<path style="fill:#0b0501; stroke:none;" d="M233 277L234 278L233 277M275 277L276 278L275 277M220 279L220 281L227 281L227 279L220 279z"/>
<path style="fill:#042070; stroke:none;" d="M329 279L325 287C328.557 285.96 329.652 282.52 329 279M102 280L104 282L102 280M105 282L104 285L107 285L106 288L107 288L107 282L105 282M326 288L327 289L326 288z"/>
<path style="fill:#0b0501; stroke:none;" d="M224 312L224 313C219.175 315.78 219.939 318.741 224 322L227 316L233 297L225 292C222.071 292.037 218.806 290.854 216.188 292.644C207.002 298.921 215.23 311.788 224 312z"/>
<path style="fill:#042070; stroke:none;" d="M108 292L110 294L110 295L108 298L113 298C112.597 302.514 112.764 306.69 117 309C114.192 302.374 116.493 294.081 108 292M326 294L326 297L327 297L326 294z"/>
<path style="fill:#0b0501; stroke:none;" d="M112 296L113 297L112 296z"/>
<path style="fill:#a65101; stroke:none;" d="M230 302L231 303L230 302z"/>
<path style="fill:#042070; stroke:none;" d="M323 304L316 309L316 310L319 311L323 304M118 308L121 310L118 308M116 311L117 319L122 316L122 312L116 311z"/>
<path style="fill:#a65101; stroke:none;" d="M221 315L221 316L224 316L221 315z"/>
<path style="fill:#042070; stroke:none;" d="M314 316L313 321L315 322L316 322L317 316L314 316z"/>
<path style="fill:#a65101; stroke:none;" d="M116 322L117 323L116 322z"/>
<path style="fill:#ecca01; stroke:none;" d="M112 324L113 325L112 324z"/>
<path style="fill:#a65101; stroke:none;" d="M113 324L114 325L113 324M111 325L112 326L111 325M110 326L111 327L110 326M108 327L109 328L108 327M106 329L103 333L106 329z"/>
<path style="fill:#858a01; stroke:none;" d="M103 331L104 332L103 331z"/>
<path style="fill:#a65101; stroke:none;" d="M97 338L98 339L97 338z"/>
<path style="fill:#042070; stroke:none;" d="M333 338L335 340L333 338z"/>
<path style="fill:#a65101; stroke:none;" d="M137 350L138.42 379L135.826 387.539L129 383L128 391C126.075 389.877 123.483 388.469 127 388L127 387L120 388L124 383C124.28 372.414 123.705 367.244 112 372C110.776 387.509 113.959 402.932 125.379 414.775C129.87 419.433 137.625 420.827 143 424.509C159.758 435.99 178.769 447.523 192.471 462.715C200.676 471.811 208.921 480.2 217.91 488.576C220.772 491.242 224.369 497.113 228.946 495.762C238.237 493.021 244.033 476.999 249.49 470.093C260.762 455.828 272.766 439.668 286.576 427.745C299.411 416.664 313.804 413.113 315.826 394C316.554 387.123 314.338 372.872 310.262 367.112C307.527 363.245 302.99 362.713 300.944 358.031C298.668 352.819 300 345.584 300 340C292.847 342.295 294.755 349.363 291.117 354.127C284.162 363.231 271.636 374.122 261.91 380.331C231.201 399.934 191.893 389.149 163.17 371.365C156.994 367.541 149.774 363.079 144.429 358.201C141.354 355.394 140.966 351.994 137 350z"/>
<path style="fill:#042070; stroke:none;" d="M337 343L339 345L337 343M345 353L347 356L345 353M353 365L354 366L353 365M355 368L357 371L355 368M75 369L76 370L75 369z"/>
<path style="fill:#a65101; stroke:none;" d="M364 374L365 375L364 374M366 374L367 375L366 374z"/>
<path style="fill:#858a01; stroke:none;" d="M364 375L365 376L364 375z"/>
<path style="fill:#a65101; stroke:none;" d="M368 375L369 376L368 375M65 376L66 377L65 376z"/>
<path style="fill:#042070; stroke:none;" d="M364 376L365 377L364 376z"/>
<path style="fill:#ecca01; stroke:none;" d="M371 376L372 377L371 376z"/>
<path style="fill:#042070; stroke:none;" d="M371 377L372 378L371 377z"/>
<path style="fill:#ecca01; stroke:none;" d="M373 377L374 378L373 377z"/>
<path style="fill:#042070; stroke:none;" d="M373 378L374 379L373 378z"/>
<path style="fill:#858a01; stroke:none;" d="M58 379L59 380L58 379z"/>
<path style="fill:#042070; stroke:none;" d="M374 379L375 380L374 379z"/>
<path style="fill:#ecca01; stroke:none;" d="M55 380L56 381L55 380z"/>
<path style="fill:#858a01; stroke:none;" d="M56 380L57 381L56 380z"/>
<path style="fill:#a65101; stroke:none;" d="M57 380L58 381L57 380z"/>
<path style="fill:#ecca01; stroke:none;" d="M52 381L53 382L52 381z"/>
<path style="fill:#858a01; stroke:none;" d="M53 381L54 382L53 381z"/>
<path style="fill:#a65101; stroke:none;" d="M54 381L55 382L54 381z"/>
<path style="fill:#042070; stroke:none;" d="M378 381L379 382L378 381z"/>
<path style="fill:#a65101; stroke:none;" d="M52 382L53 383L52 382M380.667 382.333L381.333 382.667L380.667 382.333z"/>
<path style="fill:#ecca01; stroke:none;" d="M45 383L45 384L48 384L45 383z"/>
<path style="fill:#a65101; stroke:none;" d="M50 383L51 384L50 383M383 383L384 384L383 383z"/>
<path style="fill:#ecca01; stroke:none;" d="M43 384L44 385L43 384z"/>
<path style="fill:#a65101; stroke:none;" d="M44 384L44 385L49 385L49 384L44 384z"/>
<path style="fill:#042070; stroke:none;" d="M45 384L46 385L45 384z"/>
<path style="fill:#0b0501; stroke:none;" d="M120.333 384.667L120.667 385.333L120.333 384.667z"/>
<path style="fill:#042070; stroke:none;" d="M385 384L386 385L385 384M46 385L47 386L46 385z"/>
<path style="fill:#ecca01; stroke:none;" d="M42 386L43 387L42 386z"/>
<path style="fill:#858a01; stroke:none;" d="M43 386L44 387L43 386z"/>
<path style="fill:#a65101; stroke:none;" d="M133 386L134 387L133 386z"/>
<path style="fill:#042070; stroke:none;" d="M391 387L392 388L391 387z"/>
<path style="fill:#ecca01; stroke:none;" d="M36 388L37 389L36 388z"/>
<path style="fill:#a65101; stroke:none;" d="M35 389L35 390L41 389L35 389M395 388L396 389L395 388M33 390L34 391L33 390z"/>
<path style="fill:#042070; stroke:none;" d="M34.6667 390.333L35.3333 390.667L34.6667 390.333z"/>
<path style="fill:#858a01; stroke:none;" d="M398 390L399 391L398 390z"/>
<path style="fill:#042070; stroke:none;" d="M31 391L32 392L31 391z"/>
<path style="fill:#a65101; stroke:none;" d="M29 392L30 393L29 392z"/>
<path style="fill:#042070; stroke:none;" d="M403 393L404 394L403 393z"/>
<path style="fill:#858a01; stroke:none;" d="M404 393L405 394L404 393z"/>
<path style="fill:#042070; stroke:none;" d="M405 394L406 395L405 394z"/>
<path style="fill:#858a01; stroke:none;" d="M23 395L24 396L23 395z"/>
<path style="fill:#042070; stroke:none;" d="M407 395L408 396L407 395z"/>
<path style="fill:#a65101; stroke:none;" d="M20 399L23 396L20 399M408 396L409 397L408 396z"/>
<path style="fill:#ecca01; stroke:none;" d="M19 397L20 398L19 397z"/>
<path style="fill:#858a01; stroke:none;" d="M20 397L21 398L20 397z"/>
<path style="fill:#a65101; stroke:none;" d="M410 397L411 398L410 397z"/>
<path style="fill:#858a01; stroke:none;" d="M18.6667 398.333L19.3333 398.667L18.6667 398.333z"/>
<path style="fill:#ecca01; stroke:none;" d="M16 399L17 400L16 399z"/>
<path style="fill:#858a01; stroke:none;" d="M17 399L18 400L17 399z"/>
<path style="fill:#a65101; stroke:none;" d="M16 400L17 401L16 400M15 401L16 402L15 401z"/>
<path style="fill:#858a01; stroke:none;" d="M12 402L13 403L12 402z"/>
<path style="fill:#a65101; stroke:none;" d="M13 402L14 403L13 402z"/>
<path style="fill:#858a01; stroke:none;" d="M10 403L11 404L10 403z"/>
<path style="fill:#a65101; stroke:none;" d="M11 403L12 404L11 403z"/>
<path style="fill:#858a01; stroke:none;" d="M7 404L8 405L7 404z"/>
<path style="fill:#a65101; stroke:none;" d="M8 404L9 405L8 404M5.66667 405.333L6.33333 405.667L5.66667 405.333z"/>
<path style="fill:#858a01; stroke:none;" d="M3 406L4 407L3 406z"/>
<path style="fill:#a65101; stroke:none;" d="M4 406L5 407L4 406M1 407L2 408L1 407z"/>
</svg>
